<svg id="Layer_1" data-name="Layer 1" xmlns="http://www.w3.org/2000/svg" viewBox="0 0 220 106"><defs><style>.cls-1{fill:#fff;}</style></defs><polygon class="cls-1" points="85.63 71.95 85.64 71.95 85.64 71.94 85.63 71.95"/><polygon class="cls-1" points="202.16 10.11 179.13 10.11 190.85 26.87 202.16 10.11"/><path class="cls-1" d="M34.71,70.77A29.83,29.83,0,1,1,59.57,24.5l3.1-2.39A33.72,33.72,0,1,0,63.2,59L60,56.7A29.83,29.83,0,0,1,34.71,70.77"/><path class="cls-1" d="M34.72,56A15,15,0,1,1,47.8,33.58l11-8.49a28.86,28.86,0,1,0,.43,31L48,48.05A15,15,0,0,1,34.72,56"/><polygon class="cls-1" points="134.84 71.95 115.13 71.95 134.85 40.4 134.84 71.95"/><rect class="cls-1" x="68.85" y="10.13" width="3.89" height="61.82"/><polygon class="cls-1" points="116.45 10.13 101.7 34.06 86.96 10.13 73.71 10.13 73.71 71.95 85.89 71.95 85.89 36.45 101.7 60.64 101.98 60.64 134.56 10.54 134.84 10.13 116.45 10.13"/><polygon class="cls-1" points="202.81 71.95 159.55 10.11 155.12 10.11 197.62 71.95 202.81 71.95"/><polygon class="cls-1" points="138.74 10.11 159.07 40.52 137.88 71.95 159.64 71.95 170.27 55.26 180.82 71.95 196.44 71.95 153.95 10.11 138.74 10.11"/><path class="cls-1" d="M209.73,70.15c0,.79.58,1.09,1.29,1.09s1.07-.38,1.07-.77a.61.61,0,0,0-.42-.62c-.36-.14-.82-.23-1.51-.42A1.29,1.29,0,0,1,209,68.14c0-1,.94-1.49,1.86-1.49s2,.56,2,1.62H212c0-.65-.48-.89-1.1-.89-.41,0-.93.15-.93.66,0,.35.24.55.61.65.07,0,1.2.31,1.46.39a1.33,1.33,0,0,1,1,1.29c0,1.14-1,1.59-2,1.59-1.16,0-2.1-.55-2.12-1.81Z"/><polygon class="cls-1" points="213.74 66.78 214.99 66.78 216.39 70.75 216.4 70.75 217.76 66.78 219 66.78 219 71.84 218.16 71.84 218.16 67.93 218.14 67.93 216.74 71.84 216 71.84 214.6 67.93 214.58 67.93 214.58 71.84 213.74 71.84 213.74 66.78"/><path class="cls-1" d="M102.1,90.83v0a7.83,7.83,0,0,1,8-8,8,8,0,0,1,6.08,2.38l-2.16,2.49A5.69,5.69,0,0,0,110.11,86a4.57,4.57,0,0,0-4.47,4.8v0a4.58,4.58,0,0,0,4.47,4.84,5.56,5.56,0,0,0,4-1.8L116.32,96A7.91,7.91,0,0,1,110,98.76a7.77,7.77,0,0,1-7.9-7.93"/><rect class="cls-1" x="118.98" y="83.09" width="3.39" height="15.41"/><polygon class="cls-1" points="126.02 83.09 129.15 83.09 136.37 92.58 136.37 83.09 139.72 83.09 139.72 98.5 136.83 98.5 129.37 88.7 129.37 98.5 126.02 98.5 126.02 83.09"/><polygon class="cls-1" points="143.21 83.09 154.84 83.09 154.84 86.1 146.58 86.1 146.58 89.23 153.85 89.23 153.85 92.25 146.58 92.25 146.58 95.48 154.95 95.48 154.95 98.5 143.21 98.5 143.21 83.09"/><polygon class="cls-1" points="157.76 83.09 161.42 83.09 165.47 89.6 169.52 83.09 173.17 83.09 173.17 98.5 169.81 98.5 169.81 88.44 165.47 95.02 165.38 95.02 161.09 88.5 161.09 98.5 157.76 98.5 157.76 83.09"/><path class="cls-1" d="M181.07,83h3.13l6.6,15.53h-3.54L185.85,95h-6.52l-1.41,3.46h-3.45Zm3.57,9.08-2-5-2.05,5Z"/><path class="cls-1" d="M190.82,96.25l2-2.4a7,7,0,0,0,4.6,1.87c1.39,0,2.22-.55,2.22-1.45v0c0-.86-.53-1.3-3.1-2-3.11-.8-5.11-1.65-5.11-4.71v0c0-2.8,2.25-4.64,5.39-4.64a9,9,0,0,1,5.73,1.95l-1.76,2.56a7.23,7.23,0,0,0-4-1.52c-1.3,0-2,.59-2,1.34v0c0,1,.66,1.34,3.32,2,3.13.82,4.89,1.94,4.89,4.63v0c0,3.06-2.33,4.78-5.66,4.78a9.83,9.83,0,0,1-6.54-2.47"/></svg>